<svg xmlns="http://www.w3.org/2000/svg">

    <symbol viewBox="0 0 39 39" id="addButton">
        <path fill-rule="evenodd" clip-rule="evenodd"
            d="M0 19.5C0 8.73045 8.7741 0 19.5975 0C30.4208 0 39.195 8.73045 39.195 19.5C39.195 30.2695 30.4208 39 19.5975 39C8.7741 39 0 30.2695 0 19.5ZM20.4883 7.97727C21.4723 7.97727 22.2699 8.77096 22.2699 9.75V16.8409H29.3962C30.3802 16.8409 31.1778 17.6346 31.1778 18.6136V20.3864C31.1778 21.3654 30.3802 22.1591 29.3962 22.1591H22.2699V29.25C22.2699 30.2291 21.4723 31.0227 20.4883 31.0227H18.7067C17.7227 31.0227 16.9251 30.2291 16.9251 29.25V22.1591H9.79875C8.81481 22.1591 8.01716 21.3654 8.01716 20.3864V18.6136C8.01716 17.6346 8.81481 16.8409 9.79875 16.8409H16.9251V9.75C16.9251 8.77096 17.7227 7.97727 18.7067 7.97727H20.4883Z"
            fill="currentColor" />
    </symbol>

    <symbol viewBox="0 0 30 18" id="burgerButton">
        <path fill-rule="evenodd" clip-rule="evenodd"
            d="M0.0100098 1.5C0.0100098 1.10218 0.168835 0.720645 0.451546 0.43934C0.734257 0.158036 1.1177 0 1.51751 0H28.6525C29.0523 0 29.4358 0.158036 29.7185 0.43934C30.0012 0.720645 30.16 1.10218 30.16 1.5C30.16 1.89782 30.0012 2.27936 29.7185 2.56066C29.4358 2.84196 29.0523 3 28.6525 3H1.51751C1.1177 3 0.734257 2.84196 0.451546 2.56066C0.168835 2.27936 0.0100098 1.89782 0.0100098 1.5ZM0.0100098 9C0.0100098 8.60218 0.168835 8.22064 0.451546 7.93934C0.734257 7.65804 1.1177 7.5 1.51751 7.5H28.6525C29.0523 7.5 29.4358 7.65804 29.7185 7.93934C30.0012 8.22064 30.16 8.60218 30.16 9C30.16 9.39782 30.0012 9.77936 29.7185 10.0607C29.4358 10.342 29.0523 10.5 28.6525 10.5H1.51751C1.1177 10.5 0.734257 10.342 0.451546 10.0607C0.168835 9.77936 0.0100098 9.39782 0.0100098 9ZM1.51751 15C1.1177 15 0.734257 15.158 0.451546 15.4393C0.168835 15.7206 0.0100098 16.1022 0.0100098 16.5C0.0100098 16.8978 0.168835 17.2794 0.451546 17.5607C0.734257 17.842 1.1177 18 1.51751 18H28.6525C29.0523 18 29.4358 17.842 29.7185 17.5607C30.0012 17.2794 30.16 16.8978 30.16 16.5C30.16 16.1022 30.0012 15.7206 29.7185 15.4393C29.4358 15.158 29.0523 15 28.6525 15H1.51751Z"
            fill="currentColor" />
    </symbol>

    <symbol viewBox="0 0 23 17" id="checkMark">
        <path
            d="M20.2284 1.06117L8.04129 13.2466L2.63565 7.84428C2.53472 7.74023 2.41418 7.65719 2.28097 7.59997C2.14704 7.54244 2.003 7.51216 1.85725 7.51089C1.7115 7.50963 1.56695 7.5374 1.43205 7.5926C1.29714 7.64779 1.17458 7.7293 1.07151 7.83237C0.968445 7.93543 0.886936 8.05799 0.831743 8.1929C0.776549 8.3278 0.748775 8.47235 0.750041 8.6181C0.751308 8.76385 0.78159 8.9079 0.83912 9.04182C0.896342 9.17503 0.979382 9.29558 1.08344 9.39651L7.8637 16.1768L8.04048 16.3536L8.21726 16.1768L21.7806 2.6134L21.7807 2.61343L21.7837 2.6103C21.9836 2.40327 22.0943 2.12599 22.0918 1.83817C22.0893 1.55036 21.9738 1.27504 21.7703 1.07151C21.5668 0.867988 21.2915 0.752543 21.0036 0.750041C20.7158 0.74754 20.4385 0.858183 20.2315 1.05814L20.2315 1.05811L20.2284 1.06117Z"
            fill="#3369F3" stroke="#3369F3" stroke-width="0.5" />
    </symbol>

    <symbol viewBox="0 0 28 15" id="doubleCheckMark">
        <path fill-rule="evenodd" clip-rule="evenodd"
            d="M20.0552 0.399396C20.5877 0.931938 20.5877 1.79534 20.0552 2.32788L8.74667 13.6364C7.6816 14.7015 5.95478 14.7014 4.88973 13.6364L0.399396 9.14607C-0.133132 8.61356 -0.133132 7.75011 0.399396 7.21761C0.931938 6.68511 1.79534 6.68511 2.32788 7.21761L6.8182 11.7079L18.1267 0.399396C18.6592 -0.133132 19.5227 -0.133132 20.0552 0.399396ZM26.8734 0.399396C27.4059 0.931938 27.4059 1.79534 26.8734 2.32788L14.6006 14.6006C14.0681 15.1331 13.2047 15.1331 12.6722 14.6006C12.1397 14.0681 12.1397 13.2047 12.6722 12.6722L24.9449 0.399396C25.4774 -0.133132 26.3409 -0.133132 26.8734 0.399396Z"
            fill="#3AAC27" />
    </symbol>

    <symbol viewBox="0 0 15 15" id="errorMark">
        <path
            d="M14.5665 12.6546C14.8036 12.9111 14.9322 13.2494 14.9255 13.5987C14.9187 13.9479 14.777 14.281 14.5301 14.5281C14.2831 14.7752 13.9502 14.9171 13.6009 14.9241C13.2517 14.9312 12.9133 14.8027 12.6566 14.5658L7.50068 9.40985L2.34474 14.5658C2.22116 14.6995 2.07186 14.8068 1.90578 14.8814C1.73971 14.9559 1.56028 14.9962 1.37827 14.9997C1.19626 15.0033 1.0154 14.97 0.846555 14.902C0.677707 14.8339 0.524343 14.7325 0.395661 14.6037C0.266978 14.4749 0.165626 14.3215 0.0976845 14.1526C0.0297428 13.9837 -0.00338973 13.8028 0.000273811 13.6208C0.00393735 13.4388 0.0443215 13.2594 0.119004 13.0934C0.193687 12.9273 0.301131 12.7781 0.434891 12.6546L5.59083 7.49869L0.434891 2.34537C0.301131 2.22188 0.193687 2.07265 0.119004 1.90663C0.0443215 1.74061 0.00393735 1.56121 0.000273811 1.3792C-0.00338973 1.19719 0.0297428 1.01631 0.0976845 0.847417C0.165626 0.678522 0.266978 0.525088 0.395661 0.396317C0.524343 0.267546 0.677707 0.166089 0.846555 0.0980314C1.0154 0.0299737 1.19626 -0.00328305 1.37827 0.000255436C1.56028 0.00379392 1.73971 0.0440547 1.90578 0.118624C2.07186 0.193192 2.22116 0.300533 2.34474 0.434209L7.50068 5.58884L12.6566 0.432897C12.9133 0.195947 13.2517 0.0675317 13.6009 0.0745613C13.9502 0.0815909 14.2831 0.223519 14.5301 0.470605C14.777 0.71769 14.9187 1.05075 14.9255 1.4C14.9322 1.74924 14.8036 2.08756 14.5665 2.34406L9.41053 7.49869L14.5665 12.6546Z"
            fill="#FF2F2F" fill-opacity="0.65" />
    </symbol>

    <symbol viewBox="0 0 17 17" id="waitMark">
        <path
            d="M3.047 14.763c.214 0 .42-.085.57-.237l.095-.094a7.63 7.63 0 0 0 12.423-5.934 7.631 7.631 0 1 0-15.107 1.525.807.807 0 0 0 1.582-.322 6.015 6.015 0 1 1 2.253 3.58l.12-.12a.807.807 0 0 0-.572-1.377H3.047a.807.807 0 0 0-.807.807v1.365a.807.807 0 0 0 .498.745m.309.062a.8.8 0 0 1-.31-.062m.31.062v-.125.125Zm-.31-.062.049-.115-.049.115ZM8.506 3.598a.807.807 0 0 0-.807.807v4.093a.807.807 0 0 0 .807.808h3.411a.807.807 0 0 0 0-1.615H9.312V4.404a.807.807 0 0 0-.807-.807Z"
            fill="#3369F3" stroke="#3369F3" stroke-width="0.5" />
    </symbol>

    <symbol viewBox="0 0 30 30" id="sendButton">
        <g clip-path="url(#sendButton_clip)" fill="white">
            <path
                d="M11.25 27.5001H18.75C25 27.5001 27.5 25.0001 27.5 18.7501V11.2501C27.5 5.00006 25 2.50006 18.75 2.50006H11.25C5 2.50006 2.5 5.00006 2.5 11.2501V18.7501C2.5 25.0001 5 27.5001 11.25 27.5001Z"
                stroke="currentColor" stroke-opacity="1" stroke-width="2.5"
                stroke-linecap="round"
                stroke-linejoin="round" />
            <path d="M13.2373 9.59998H18.5373V14.9124" stroke="currentColor" stroke-opacity="1"
                stroke-width="2.5" stroke-linecap="round" stroke-linejoin="round" />
            <path d="M14 14.0001L11 17.0001" stroke="currentColor" stroke-opacity="1"
                stroke-width="2.5" stroke-linecap="round" stroke-linejoin="round" />
            <path d="M7.5 20.6376C12.3625 22.2626 17.6375 22.2626 22.5 20.6376"
                stroke="currentColor"
                stroke-opacity="1" stroke-width="2.5" stroke-linecap="round"
                stroke-linejoin="round" />
        </g>
        <defs>
            <clipPath id="sendButton_clip">
                <rect width="30" height="30" fill="white" />
            </clipPath>
        </defs>
    </symbol>

    <symbol viewBox="0 0 148 148" id="page404" fill="none">
        <path
            d="M22.2001 96.2H37.0001V115.933C37.0001 117.295 38.1051 118.4 39.4667 118.4C40.8283 118.4 41.9334 117.295 41.9334 115.933V96.2H49.3334C50.695 96.2 51.8001 95.0949 51.8001 93.7333C51.8001 92.3717 50.695 91.2667 49.3334 91.2667H41.9334V86.3333C41.9334 84.9717 40.8283 83.8667 39.4667 83.8667C38.1051 83.8667 37.0001 84.9717 37.0001 86.3333V91.2667H24.6667V66.6C24.6667 65.2384 23.5617 64.1333 22.2001 64.1333C20.8385 64.1333 19.7334 65.2384 19.7334 66.6V93.7333C19.7334 95.0949 20.8385 96.2 22.2001 96.2Z"
            fill="black" />
        <path
            d="M98.6666 96.2H113.467V115.933C113.467 117.295 114.572 118.4 115.933 118.4C117.295 118.4 118.4 117.295 118.4 115.933V96.2H125.8C127.162 96.2 128.267 95.0949 128.267 93.7333C128.267 92.3717 127.162 91.2667 125.8 91.2667H118.4V86.3333C118.4 84.9717 117.295 83.8667 115.933 83.8667C114.572 83.8667 113.467 84.9717 113.467 86.3333V91.2667H101.133V66.6C101.133 65.2384 100.028 64.1333 98.6666 64.1333C97.305 64.1333 96.2 65.2384 96.2 66.6V93.7333C96.2 95.0949 97.305 96.2 98.6666 96.2Z"
            fill="black" />
        <path
            d="M72.7667 118.4C81.6073 118.4 88.8001 111.207 88.8001 102.367V80.1667C88.8001 71.3261 81.6073 64.1333 72.7667 64.1333C63.9262 64.1333 56.7334 71.3261 56.7334 80.1667V102.367C56.7334 111.207 63.9262 118.4 72.7667 118.4ZM61.6667 80.1667C61.6667 74.0469 66.6469 69.0667 72.7667 69.0667C78.8865 69.0667 83.8667 74.0469 83.8667 80.1667V102.367C83.8667 108.486 78.8865 113.467 72.7667 113.467C66.6469 113.467 61.6667 108.486 61.6667 102.367V80.1667Z"
            fill="black" />
        <path
            d="M0 0V34.5333V148H148V34.5333V0H0ZM4.93333 4.93333H143.067V29.6H4.93333V4.93333ZM143.067 143.067H4.93333V34.5333H143.067V143.067Z"
            fill="black" />
        <path
            d="M133.923 8.12273L128.266 13.7788L122.61 8.12273L119.123 11.6106L124.779 17.2667L119.123 22.9227L122.61 26.4106L128.266 20.7545L133.923 26.4106L137.41 22.9227L131.754 17.2667L137.41 11.6106L133.923 8.12273Z"
            fill="black" />
        <path
            d="M7.3999 27.1333H103.6V7.39999H7.3999V27.1333ZM12.3332 12.3333H98.6666V22.2H12.3332V12.3333Z"
            fill="black" />
    </symbol>

    <symbol viewBox="0 0 171 126" id="page5xx">
        <path
            d="M65.6298 51.3C63.0648 51.3 61.7082 54.378 63.5607 56.1849L81.4758 74.0829L63.5436 92.0151C60.9501 94.5003 64.9971 98.724 67.5735 96.045L85.5 78.1185L103.432 96.045C106.009 98.724 110.056 94.506 107.462 92.0151L89.5299 74.0886L107.439 56.1906C109.286 54.378 107.935 51.3 105.365 51.3C104.623 51.3228 103.922 51.6306 103.404 52.155L85.5 70.053L67.5906 52.155C67.0776 51.6306 66.3708 51.3228 65.6298 51.3ZM14.25 22.8H156.75C158.329 22.8 159.6 24.0711 159.6 25.65C159.6 27.2289 158.329 28.5 156.75 28.5H14.25C12.6711 28.5 11.4 27.2289 11.4 25.65C11.4 24.0711 12.6711 22.8 14.25 22.8ZM39.9 14.25C39.9 15.0059 39.5997 15.7308 39.0653 16.2653C38.5308 16.7997 37.8059 17.1 37.05 17.1C36.2941 17.1 35.5692 16.7997 35.0347 16.2653C34.5003 15.7308 34.2 15.0059 34.2 14.25C34.2 13.4941 34.5003 12.7692 35.0347 12.2347C35.5692 11.7003 36.2941 11.4 37.05 11.4C37.8059 11.4 38.5308 11.7003 39.0653 12.2347C39.5997 12.7692 39.9 13.4941 39.9 14.25ZM28.5 14.25C28.5 15.0059 28.1997 15.7308 27.6653 16.2653C27.1308 16.7997 26.4059 17.1 25.65 17.1C24.8941 17.1 24.1692 16.7997 23.6347 16.2653C23.1003 15.7308 22.8 15.0059 22.8 14.25C22.8 13.4941 23.1003 12.7692 23.6347 12.2347C24.1692 11.7003 24.8941 11.4 25.65 11.4C26.4059 11.4 27.1308 11.7003 27.6653 12.2347C28.1997 12.7692 28.5 13.4941 28.5 14.25ZM17.1 14.25C17.1 15.0059 16.7997 15.7308 16.2653 16.2653C15.7308 16.7997 15.0059 17.1 14.25 17.1C13.4941 17.1 12.7692 16.7997 12.2347 16.2653C11.7003 15.7308 11.4 15.0059 11.4 14.25C11.4 13.4941 11.7003 12.7692 12.2347 12.2347C12.7692 11.7003 13.4941 11.4 14.25 11.4C15.0059 11.4 15.7308 11.7003 16.2653 12.2347C16.7997 12.7692 17.1 13.4941 17.1 14.25ZM8.55 0C3.8646 0 0 3.8646 0 8.55V116.85C0 121.535 3.8646 125.4 8.55 125.4H162.45C167.135 125.4 171 121.535 171 116.85V8.55C171 3.8646 167.135 0 162.45 0H8.55ZM8.55 5.7H162.45C164.08 5.7 165.3 6.9198 165.3 8.55V116.85C165.3 118.48 164.08 119.7 162.45 119.7H8.55C6.9198 119.7 5.7 118.48 5.7 116.85V8.55C5.7 6.9198 6.9198 5.7 8.55 5.7Z"
            fill="black" />
    </symbol>

</svg>